Red Psalm, or Még kér a nép (literally: "The People Still Ask") is one of the great Hungarian film director Miklos Jancso's best-known films. It recounts quite poetically the story of a peasant uprising on an estate in Hungary in the 1890s. It examines the nature of revolt, and the issues of morality and violence. This film uses symbolic imagery and language involving the color red to great effect and was filmed in a virtuoso manner, using only 28 shots. Reviewers reported that Jancso's storytelling technique most closely resembled that used in ballet. The pacifistic peasants, who seek some basic rights, are in a standoff with local authorities and later, the army. Everyone takes a break in the confrontation in order to celebrate a festival. Afterwards, the peasants resume their strike and meet with a tragic end. 

   General
      Complete name : Meg ker a nep.avi
      Format : AVI
      Format/Info : Audio Video Interleave
      File size : 1.07 GiB
      Duration : 1h 21mn
      Overall bit rate : 1 885 Kbps
      Writing application : VirtualDubMod 1.5.10.2 (build 2540/release)
      Writing library : VirtualDubMod build 2540/release
   Video #0
      ID : 0
      Format : MPEG-4 Visual
      Format profile : AdvancedSimple@L5
      Format settings, BVOP : Yes
      Format settings, QPel : No
      Format settings, GMC : No warppoints
      Format settings, Matrix : Default (MPEG)
      Codec ID : XVID
      Codec ID/Hint : XviD
      Duration : 1h 21mn
      Bit rate : 1 619 Kbps
      Width : 640 pixels
      Height : 480 pixels
      Display aspect ratio : 4:3
      Frame rate : 25.000 fps
      Resolution : 24 bits
      Colorimetry : 4:2:0
      Scan type : Progressive
      Bits/(Pixel*Frame) : 0.211
      Stream size : 942 MiB (86%)
      Writing library : XviD 1.1.2 (UTC 2006-11-01)
   Audio #1
      ID : 1
      Format : AC-3
      Format/Info : Audio Coding 3
      Format profile : Dolby Digital
      Codec ID : 2000
      Duration : 1h 21mn
      Bit rate mode : Constant
      Bit rate : 256 Kbps
      Channel(s) : 2 channels
      Channel positions : L R
      Sampling rate : 48.0 KHz
      Stream size : 149 MiB (14%)
      Alignment : Split accross interleaves
      Interleave, duration : 40 ms (1.00 video frame)
      Interleave, preload duration : 500 ms
 
http://www.imdb.com/title/tt0067467/

Hungarian audio; English, French and Portuguese subtitles

Posted at KG by crasus, whom we thank

Miklos Jancso - Meg ker a nep [Red Psalm] (1972)